HIERARCHY
ROOT root
{
	OFFSET 0.000000 0.000000 0.000000
	CHANNELS 6 Xposition Yposition Zposition Zrotation Yrotation Xrotation
	JOINT lhip
	{
		OFFSET 0.058581 -0.082280 -0.017664
		CHANNELS 3 Zrotation Yrotation Xrotation
		JOINT lknee
		{
			OFFSET 0.043451 -0.386469 0.008037
			CHANNELS 3 Zrotation Yrotation Xrotation
			JOINT lankle
			{
				OFFSET -0.014790 -0.426874 -0.037428
				CHANNELS 3 Zrotation Yrotation Xrotation
				JOINT ltoe
				{
					OFFSET 0.041054 -0.060286 0.122042
					CHANNELS 3 Zrotation Yrotation Xrotation
					End Site
					{
						OFFSET 0.000000 0.000000 0.000000
					}
				}
			}
		}
	}
	JOINT rhip
	{
		OFFSET -0.060310 -0.090513 -0.013543
		CHANNELS 3 Zrotation Yrotation Xrotation
		JOINT rknee
		{
			OFFSET -0.043257 -0.383688 -0.004843
			CHANNELS 3 Zrotation Yrotation Xrotation
			JOINT rankle
			{
				OFFSET 0.019056 -0.420046 -0.034562
				CHANNELS 3 Zrotation Yrotation Xrotation
				JOINT rtoe
				{
					OFFSET -0.034840 -0.062106 0.130323
					CHANNELS 3 Zrotation Yrotation Xrotation
					End Site
					{
						OFFSET 0.000000 0.000000 0.000000
					}
				}
			}
		}
	}
	JOINT lowerback
	{
		OFFSET 0.004439 0.124404 -0.038385
		CHANNELS 3 Zrotation Yrotation Xrotation
		JOINT upperback
		{
			OFFSET 0.004488 0.137956 0.026820
			CHANNELS 3 Zrotation Yrotation Xrotation
			JOINT chest
			{
				OFFSET -0.002265 0.056032 0.002855
				CHANNELS 3 Zrotation Yrotation Xrotation
				JOINT lowerneck
				{
					OFFSET -0.013390 0.211636 -0.033468
					CHANNELS 3 Zrotation Yrotation Xrotation
					JOINT upperneck
					{
						OFFSET 0.010113 0.088937 0.050410
						CHANNELS 3 Zrotation Yrotation Xrotation
						End Site
						{
							OFFSET 0.000000 0.000000 0.000000
						}
					}
				}
				JOINT lclavicle
				{
					OFFSET 0.071702 0.114000 -0.018898
					CHANNELS 3 Zrotation Yrotation Xrotation
					JOINT lshoulder
					{
						OFFSET 0.122921 0.045205 -0.019046
						CHANNELS 3 Zrotation Yrotation Xrotation
						JOINT lelbow
						{
							OFFSET 0.255332 -0.015649 -0.022946
							CHANNELS 3 Zrotation Yrotation Xrotation
							JOINT lwrist
							{
								OFFSET 0.265709 0.012698 -0.007375
								CHANNELS 3 Zrotation Yrotation Xrotation
								End Site
								{
									OFFSET 0.000000 0.000000 0.000000
								}
							}
						}
					}
				}
				JOINT rclavicle
				{
					OFFSET -0.082954 0.112472 -0.023707
					CHANNELS 3 Zrotation Yrotation Xrotation
					JOINT rshoulder
					{
						OFFSET -0.113228 0.046853 -0.008472
						CHANNELS 3 Zrotation Yrotation Xrotation
						JOINT relbow
						{
							OFFSET -0.260127 -0.014369 -0.031269
							CHANNELS 3 Zrotation Yrotation Xrotation
							JOINT rwrist
							{
								OFFSET -0.269108 0.006794 -0.006027
								CHANNELS 3 Zrotation Yrotation Xrotation
								End Site
								{
									OFFSET 0.000000 0.000000 0.000000
								}
							}
						}
					}
				}
			}
		}
	}
}
MOTION
Frames: 11
Frame Time: 0.033333
-1.629910 0.134623 0.970850 77.100985 2.645504 92.250863 9.862625 0.970802 -24.187079 -7.651871 2.225762 66.514388 -1.340533 6.428182 -17.504068 0.000000 -0.000000 0.000000 -0.722254 -5.991533 1.080830 2.501750 3.853343 24.781178 1.784293 -2.084249 -30.505832 0.000000 -0.000000 0.000000 1.875851 7.903734 23.596751 1.196243 1.959604 -2.143014 0.153215 2.238291 -0.082201 1.585838 5.167555 -8.105911 -2.019339 -2.195398 10.534627 -31.008342 2.924473 -1.512715 -46.456042 1.508160 5.429181 4.945608 -32.019924 4.901495 2.320299 -8.321983 -7.247109 30.791494 6.574346 -0.498840 49.144337 4.938298 10.581892 -13.830990 29.387675 -6.310750 -1.514843 5.117830 1.257569 
-1.610465 0.131446 0.966907 74.630286 3.093896 92.791312 9.041085 0.429834 -29.358914 -10.838711 4.305644 69.051288 -2.480906 2.042737 -19.091524 0.000000 -0.000000 0.000000 -0.925594 -6.479964 1.986283 2.188428 4.977786 23.704819 1.957842 -0.962126 -31.020591 0.000000 -0.000000 0.000000 2.205221 9.672902 25.089784 0.944852 2.247385 -2.084092 0.174812 3.149254 -0.374454 1.669929 5.590960 -8.856247 -2.334751 -2.741144 9.922805 -30.989103 2.616277 -1.957589 -47.125729 2.795294 5.593383 5.270612 -31.857963 4.869754 1.487185 -9.101404 -7.279909 30.722908 8.708872 -0.020571 48.576804 7.433951 10.900760 -13.602765 29.894837 -5.068361 -0.531413 5.552175 2.401155 
-1.588289 0.127958 0.963736 72.875245 3.586159 93.981732 8.454469 -0.187850 -34.399852 -13.836078 6.826240 67.581164 -3.711296 -2.618582 -19.335631 0.000000 -0.000000 0.000000 -1.286141 -7.002398 3.012951 2.056018 5.764639 21.647097 2.597479 0.422543 -31.016518 0.000000 -0.000000 0.000000 2.139564 11.614252 25.924066 0.801788 2.302329 -2.313930 0.321233 3.728573 -0.628122 1.897397 6.060430 -9.662806 -2.298420 -3.479610 9.892856 -30.692657 2.482317 -2.192851 -48.035815 3.929092 6.030014 5.622578 -31.953324 4.392698 1.669304 -9.686193 -8.146156 30.762187 9.826506 0.173550 48.500939 9.924061 11.442836 -13.989766 31.770839 -3.886397 0.638106 5.571792 3.252406 
-1.561504 0.124211 0.962738 71.847161 4.210382 95.520085 7.679467 -0.889054 -38.417282 -15.369647 9.141640 62.996805 -3.835255 -4.653501 -19.714486 0.000000 -0.000000 0.000000 -1.881685 -7.852250 4.360260 2.291585 5.489437 18.992046 3.945088 2.132767 -29.417583 0.000000 -0.000000 0.000000 1.863008 13.601059 26.463715 0.607374 2.440821 -3.105117 0.508792 4.283359 -0.883924 2.560025 6.152592 -10.152850 -2.108937 -4.534285 9.810540 -29.716386 3.007575 -2.300653 -48.829987 4.524884 6.502925 4.944523 -32.725388 5.094066 1.575527 -10.161245 -8.902327 29.695284 10.372518 0.196038 49.653028 11.391853 12.491489 -14.762188 34.098914 -3.905586 0.212856 6.046932 2.565565 
-1.529721 0.119524 0.964609 71.416256 5.389449 96.719607 5.965574 -0.312549 -40.552657 -14.037943 10.389750 57.201746 -5.914046 -8.761986 -19.099487 0.000000 -0.000000 0.000000 -2.118778 -10.042955 5.614092 1.538964 4.007626 17.808458 7.688423 7.534451 -25.670650 0.000000 -0.000000 0.000000 2.192031 15.683297 27.198119 -0.158871 2.175781 -2.302350 1.198330 4.278215 -2.939305 2.853770 4.790479 -10.625094 -0.612704 -3.706551 9.540181 -28.542992 2.279296 -3.906483 -49.733649 7.733920 4.643843 4.124782 -34.450125 5.348521 -2.612165 -11.985581 -6.094114 28.138307 12.200631 -0.426849 51.160931 9.561458 11.492919 -15.640654 37.843830 -7.276123 -1.271859 7.255281 6.131962 
-1.492895 0.116468 0.968239 72.531455 6.987836 97.953657 4.364715 -1.265895 -40.497112 -13.552245 11.267747 49.397649 -5.849106 -6.671639 -16.881719 0.000000 -0.000000 0.000000 -2.768503 -10.693824 6.400063 2.945227 3.723493 18.496855 12.186061 12.130029 -18.912222 0.000000 -0.000000 0.000000 2.610337 16.021035 27.149917 0.027495 1.947882 -2.191675 1.411108 4.190664 -3.023107 3.825599 4.431019 -10.738254 0.060220 -3.883198 7.999068 -28.624991 2.049047 -3.542965 -50.066444 7.827964 4.672831 5.141459 -35.315874 3.036695 -1.637205 -12.546446 -5.750840 27.884140 12.074614 -0.263434 50.745115 9.845535 11.595948 -15.995428 39.555543 -7.678283 -2.188907 8.692387 6.366945 
-1.451330 0.116214 0.970019 74.201364 8.737131 98.902537 1.949285 -2.131520 -38.276594 -10.502289 13.758765 42.940965 -3.415172 -0.888755 -15.095781 0.000000 -0.000000 0.000000 -4.387428 -9.997864 4.734918 5.123040 3.570067 23.780363 21.687858 15.946074 -6.664187 0.000000 -0.000000 0.000000 2.738149 15.044168 26.215996 0.957280 1.628836 -1.476386 1.723317 4.241818 -2.855000 4.660266 3.806031 -10.341683 0.474859 -2.994177 6.766610 -28.994286 1.693146 -3.327145 -50.721815 7.463950 5.340531 6.541814 -34.924355 -0.629224 0.043890 -13.141445 -3.974943 28.385009 11.466059 -0.404098 49.073819 9.517526 11.682848 -16.601814 39.192726 -9.932771 -1.223347 8.597811 9.188406 
-1.407074 0.117617 0.964116 75.777763 10.691476 99.593681 -1.140549 -2.274336 -34.414403 -7.987330 14.502344 39.332026 3.880482 4.675496 -14.364905 0.000000 -0.000000 0.000000 -5.049796 -7.643354 -0.289185 5.776052 3.517458 34.472450 21.916933 12.090019 -2.208266 0.000000 -0.000000 0.000000 3.147111 12.758922 24.995648 1.695247 2.221328 -1.512709 2.045599 3.748242 -2.217042 5.079746 2.429721 -9.346698 0.469034 -0.185954 6.089187 -29.266904 2.149151 -3.122240 -50.512609 6.531985 5.740071 6.541332 -35.180155 -1.505863 -0.740616 -13.033754 -1.740712 28.196232 10.360372 -0.489297 47.842087 8.885908 12.047013 -16.666935 36.462988 -13.475171 -1.601387 8.204899 11.019312 
-1.362080 0.118536 0.948542 78.209633 12.507569 99.519015 -4.098158 -1.019987 -30.494286 -6.313848 11.554207 40.148278 10.475587 7.540877 -20.006688 0.000000 -0.000000 0.000000 -5.297620 -5.276167 -5.078616 3.260806 2.241332 46.244290 12.646918 2.860030 -6.789845 0.000000 -0.000000 0.000000 4.128102 9.059757 25.971915 1.797072 2.670503 -3.694445 2.599366 2.996290 -1.004980 4.682059 0.744298 -8.719821 0.651021 3.809932 5.521259 -29.606023 2.228563 -2.644890 -49.551160 5.935190 4.969005 6.977805 -37.563194 -0.943859 -0.914133 -13.549209 -2.213787 27.626602 9.568406 -1.163537 46.813319 6.642689 11.451054 -16.834520 34.138705 -16.431929 -1.363065 7.631961 10.656536 
-1.319686 0.121208 0.929388 82.866602 13.120909 99.663704 -5.224308 -1.657248 -27.787739 -7.388621 7.571136 42.982060 11.921878 9.337450 -25.147004 0.000000 -0.000000 0.000000 -6.036870 -2.983021 -10.289413 1.311686 2.795313 55.868800 7.307377 -2.963870 -11.403170 0.000000 -0.000000 0.000000 4.687631 5.306077 27.864929 2.719026 1.596998 -5.006576 2.890814 2.051467 0.085637 4.520361 0.424507 -10.912189 0.450286 6.151002 5.888133 -30.610850 0.502078 -3.023435 -47.593243 4.072759 5.820083 8.160539 -39.991907 -2.275165 4.653641 -13.145024 -2.826716 28.205619 9.526606 -2.775160 43.339372 3.746694 10.915578 -17.364101 31.487897 -20.119963 -1.907684 7.335752 10.080964 
-1.279234 0.126413 0.912999 88.163108 12.325525 100.249906 -6.063354 -3.152079 -24.680405 -9.998166 5.247110 44.149869 12.758666 10.142517 -28.040404 0.000000 -0.000000 0.000000 -7.725725 -0.299786 -18.457412 2.893631 3.861116 65.001940 4.902311 -7.998471 -15.274196 0.000000 -0.000000 0.000000 4.444942 2.564662 29.093587 3.963784 0.690895 -3.806714 2.745926 0.292602 -0.292186 5.096697 1.090572 -14.423728 -0.113347 6.475605 6.347922 -31.394560 -2.337809 -3.751871 -44.727113 -0.137000 7.379158 9.089499 -40.837295 -4.343358 6.554173 -14.043256 -2.582088 29.411274 9.192787 -3.763022 39.532159 1.835540 10.953921 -18.923978 26.445903 -25.792709 -1.862968 6.883379 11.608102 
